<?xml version="1.0" encoding="UTF-8"?>
<svg id="Layer_2" xmlns="http://www.w3.org/2000/svg" viewBox="0 0 106.56 60.54">
  <defs>
    <style>
      .cls-1 {
        fill: #595959;
      }
    </style>
  </defs>
  <g id="Layer_1-2" data-name="Layer_1">
    <path class="cls-1" d="M66.16,38.19c-.59,1.41-.29,3.04.77,4.13l16.55,17.06c.72.74,1.7,1.16,2.73,1.16s2.01-.42,2.73-1.16l16.55-17.06c1.06-1.09,1.37-2.73.77-4.13-.59-1.41-1.97-2.32-3.5-2.32h-12.74V3.83c0-2.1-1.7-3.81-3.81-3.81s-3.81,1.7-3.81,3.81v32.04h-12.74c-1.53,0-2.91.91-3.51,2.32h0Z"/>
    <path class="cls-1" d="M3.81,34.07h46.69c2.1,0,3.81-1.7,3.81-3.81s-1.7-3.81-3.81-3.81H3.81c-2.1,0-3.81,1.7-3.81,3.81s1.7,3.81,3.81,3.81Z"/>
    <path class="cls-1" d="M3.81,60.54h33.26c2.1,0,3.81-1.7,3.81-3.81s-1.7-3.81-3.81-3.81H3.81c-2.1,0-3.81,1.7-3.81,3.81s1.7,3.81,3.81,3.81Z"/>
    <path class="cls-1" d="M3.81,7.61h60.11c2.1,0,3.81-1.7,3.81-3.81s-1.7-3.81-3.81-3.81H3.81C1.7,0,0,1.7,0,3.81s1.7,3.81,3.81,3.81Z"/>
  </g>
</svg>