<?xml version="1.0" encoding="UTF-8"?>
<svg id="Layer_2" xmlns="http://www.w3.org/2000/svg" viewBox="0 0 81.25 81.25">
  <defs>
    <style>
      .cls-1 {
        fill: #595959;
      }
    </style>
  </defs>
  <g id="Layer_1-2" data-name="Layer_1">
    <path class="cls-1" d="M69.64,66.74V2.9c0-1.74-1.16-2.9-2.9-2.9H2.9C1.16,0,0,1.16,0,2.9v63.84c0,1.74,1.16,2.9,2.9,2.9h63.84c1.74,0,2.9-1.16,2.9-2.9ZM63.84,63.84H5.8V5.8h58.04v58.04ZM81.25,17.41v60.94c0,1.74-1.16,2.9-2.9,2.9H17.41c-1.74,0-2.9-1.16-2.9-2.9s1.16-2.9,2.9-2.9h58.04V17.41c0-1.74,1.16-2.9,2.9-2.9s2.9,1.16,2.9,2.9ZM17.41,34.82c0-1.74,1.16-2.9,2.9-2.9h11.61v-11.61c0-1.74,1.16-2.9,2.9-2.9s2.9,1.16,2.9,2.9v11.61h11.61c1.74,0,2.9,1.16,2.9,2.9s-1.16,2.9-2.9,2.9h-11.61v11.61c0,1.74-1.16,2.9-2.9,2.9s-2.9-1.16-2.9-2.9v-11.61h-11.61c-1.74,0-2.9-1.16-2.9-2.9Z"/>
  </g>
</svg>